<svg id="Layer_1" data-name="Layer 1" xmlns="http://www.w3.org/2000/svg" viewBox="0 0 37.59 38.53"><defs><style>.cls-1{fill:#fff;}</style></defs><title>cat</title><path class="cls-1" d="M665.67,80.77a7.76,7.76,0,0,0-.62-2.48,12.78,12.78,0,0,1-.86-2.52,6.86,6.86,0,0,1,2.47.89,10.73,10.73,0,0,0,2,.89,8.9,8.9,0,0,0,1.28-.13,11.84,11.84,0,0,1,1.29-.11,10.64,10.64,0,0,1,7,3c.29.09.69.24,1.2.42s.76.93.76,1.91a1.93,1.93,0,0,1-.29.62l-.47.57q0,.19.33.36c.22.11.34.21.34.31l.18,1.19a3.22,3.22,0,0,1-.66.52c-.41.29-.62.55-.62.77a1.28,1.28,0,0,0,.33.66q.24.35.72-.33l3-4.43a3.56,3.56,0,0,1,1.33-1.19,4.12,4.12,0,0,1,1.43.52,2.21,2.21,0,0,1,.52,1.62c0,.58-.59,1.59-1.76,3a9.25,9.25,0,0,0-2.1,3.86q-.14,1-1.62,7.86a37.56,37.56,0,0,0-.9,7.58,6.13,6.13,0,0,0,1.66,3.79c1.11,1.35,1.67,2.26,1.67,2.74s-.73.75-2.19,1.1a14,14,0,0,1-2.9.47,17,17,0,0,1-5.39-1.11,3.47,3.47,0,0,0-3,.1,7.09,7.09,0,0,1-4.23,1,14.61,14.61,0,0,1-12.29-7.53,31.43,31.43,0,0,1-4.53-13.16c-.06-.47.29-.71,1-.71a.37.37,0,0,1,.38.19,26.84,26.84,0,0,1,1.14,3.29,9.85,9.85,0,0,0,1.43,3.14,29.83,29.83,0,0,0,2.31,2.58,22.35,22.35,0,0,1,2.31,2.61l.57-3.8q.91-5.85,4.15-8.33l4-2.52c-1.59-2.37-2.35-4.31-2.29-5.8A6.67,6.67,0,0,1,665.67,80.77Z" transform="translate(-648.84 -75.77)"/></svg>