<svg id="Layer_1" data-name="Layer 1" xmlns="http://www.w3.org/2000/svg" viewBox="0 0 47.68 36.95"><defs><style>.cls-1{fill:#fff;}</style></defs><title>dog</title><path class="cls-1" d="M581,77.32a12.88,12.88,0,0,1-.19,3,20.28,20.28,0,0,0-.33,2.87,6.73,6.73,0,0,0,1,2.53c.76,1.43,1.52,2.18,2.29,2.24a23.77,23.77,0,0,1,4.19-1.63,40.06,40.06,0,0,1,7-.39c2.92,0,4.73,0,5.43-.14A21.64,21.64,0,0,0,608,83.06l4.43-3.14a8.13,8.13,0,0,1,4.33-1.85,13.11,13.11,0,0,1,4.14.62s1.57.65,4.62,2a3.89,3.89,0,0,1-2.71,1.85,19,19,0,0,0-3.72,1.29,8.64,8.64,0,0,0-1.66,2.38c-.48.58-.94,1.15-1.39,1.72a5.48,5.48,0,0,0-1,1.85q-.33,1.39-1.29,5a21.56,21.56,0,0,0-1.14,3.14,45,45,0,0,0-.14,4.86,25.94,25.94,0,0,0,.28,5.19,6,6,0,0,0,.72,1.29,17,17,0,0,1,1.76.85,13.24,13.24,0,0,0,1.19,1.29,7.19,7.19,0,0,1-2.34.53c-1.27,0-2.28-.86-3-2.58a26.17,26.17,0,0,1-1.5-5.47A25.86,25.86,0,0,0,608,98.26a21.22,21.22,0,0,0-.72,5.72c0,.22,0,.59,0,1.12s-.05.92-.05,1.21c0,1.14.33,1.8.9,2,1.3.41,2,.81,2,1.19s-.47.56-1.39.91a1.81,1.81,0,0,1-2,.09q-2.19-1.14-2.19-10.71a44.67,44.67,0,0,1-4.51-.33,42.31,42.31,0,0,0-4.5-.34c-1.56,0-2.58.24-3.05.72a9.92,9.92,0,0,0-.86,2.13,17.71,17.71,0,0,0-1.15,5.34,5.15,5.15,0,0,0,1.15,3.61,3.22,3.22,0,0,0,1.27.57,2.65,2.65,0,0,1,1.22.58,1.31,1.31,0,0,1,.29.71.5.5,0,0,1-.29.57,4,4,0,0,1-1.81.19,3.86,3.86,0,0,1-1.76-.52,6.43,6.43,0,0,1-1.05-1.43,33.58,33.58,0,0,1-1.52-3.28,2.47,2.47,0,0,1,0-1.48c.12-1,.19-1.58.19-1.81a1.18,1.18,0,0,0-.25-.85,2.7,2.7,0,0,0-1.88-.9,5.57,5.57,0,0,0-4.21,2.19,5.87,5.87,0,0,0-1.21,3.88,3.2,3.2,0,0,0,.5,1.86.62.62,0,0,0,.59.24l.75.1a14.44,14.44,0,0,0,1.28,1,6.28,6.28,0,0,1-2.64.76,10.82,10.82,0,0,1-1.87-.24c0-.76,0-1.9-.14-3.41s-.14-2.65-.14-3.41a1.68,1.68,0,0,1,.29-1.15l1.58-1.57a2.9,2.9,0,0,0,.92-1.87,10.15,10.15,0,0,0-.53-2.59,13.35,13.35,0,0,1-.57-2.56,12.64,12.64,0,0,1,.17-2.29A17.27,17.27,0,0,0,581,92a5.42,5.42,0,0,0-.09-1.09c-.32-1.37-1-3.43-1.91-6.16a16.48,16.48,0,0,1-1.09-4c0-2.13.17-3.4.52-3.82a1,1,0,0,1,.76-.33,2.11,2.11,0,0,1,1.08.38A2.17,2.17,0,0,0,581,77.32Z" transform="translate(-577.86 -76.56)"/></svg>